<?xml version="1.0" encoding="UTF-8"?>
<svg id="Layer_1" xmlns="http://www.w3.org/2000/svg" width="38.3" height="32.9" version="1.1" viewBox="0 0 38.3 32.9">
  <!-- Generator: Adobe Illustrator 29.0.0, SVG Export Plug-In . SVG Version: 2.1.0 Build 186)  -->
  <defs>
    <style>
      .st0 {
        stroke: #000;
        stroke-miterlimit: 10;
      }

      .st0, .st1 {
        fill: none;
      }

      .st1 {
        stroke: #0a0c06;
        stroke-linecap: round;
        stroke-linejoin: round;
        stroke-width: .9px;
      }
    </style>
  </defs>
  <path class="st0" d="M19.1.4c1.8,3.6,10.1,13.8,8.9,19.9-.5,2.7-3,6.1-8.9,6.1s-8.4-3.4-8.9-6.1C9.1,14.3,17.3,4.1,19.1.4h0Z"/>
  <path class="st1" d="M10.6,24.6c-1.3.5-2.1,1.1-2.1,1.8,0,1.7,4.7,3,10.6,3s10.6-1.4,10.6-3-.8-1.3-2.1-1.8M8.9,21.4C3.8,22.5.4,24.3.4,26.4c0,3.3,8.4,6,18.7,6s18.7-2.7,18.7-6-3.3-4-8.4-5"/>
</svg>