<?xml version="1.0" encoding="UTF-8"?>
<svg id="Layer_1" xmlns="http://www.w3.org/2000/svg" width="404.3" height="404.3" version="1.1" viewBox="0 0 404.3 404.3">
  <!-- Generator: Adobe Illustrator 29.0.0, SVG Export Plug-In . SVG Version: 2.1.0 Build 186)  -->
  <path d="M404.3,93.2v217.9l-4.2,20.7c-9.9,32.4-35.4,58-67.7,68.1l-21.3,4.3H93.2C42.9,399.4,3,359.2,0,308.4V95.2C3.3,44.4,44.6,3.4,95.2,0h213.2c49.5,2.5,92.1,43.6,95.9,93.2ZM186.2,109.2c-24.2,2.1-51.2-.5-75.2,3-31,4.5-32.7,32.8-33.7,58.7-.9,24.8-2.4,71.5,3.6,94.4s33.6,26.4,58.4,27.6c47.3,2.4,95.7,2.8,142.9-.8,22.1-1.7,34.6-3.5,41.1-27.7s5-82.4,2.8-107.8c-4.8-53.9-33.6-43.1-77-47l-63-.5Z"/>
  <polygon points="176.1 162.7 244 199 176.1 236.1 176.1 162.7"/>
</svg>