<?xml version="1.0" encoding="UTF-8"?>
<svg id="Layer_1" xmlns="http://www.w3.org/2000/svg" width="384" height="384" version="1.1" viewBox="0 0 384 384">
  <!-- Generator: Adobe Illustrator 29.0.0, SVG Export Plug-In . SVG Version: 2.1.0 Build 186)  -->
  <path d="M348,0c18.9,3.3,32.6,17.2,36,36v312c-3.4,18.9-17.1,32.6-36,36H36c-18.9-3.4-32.6-17.1-36-36V36C2.9,18.3,17.8,2.2,36,0h312ZM181.3,45.2C67.4,52.9,5.7,184.1,72.5,277.4c63,88.1,198.1,79.1,248.9-16.4,54.3-102-25.3-223.6-140-215.8Z"/>
  <path d="M169.3,122.5c34.6-.1,74.5,6.1,106.2,20.2,10.9,4.8,32.3,13.9,21.1,29.1-9.1,12.3-24.1-.5-34.1-4.8-39.9-17.2-94.9-20.8-137.4-12.9-6,1.1-14.6,4.4-20,4.9-15.2,1.2-21.9-21-4.1-27.4,18.4-6.6,48.6-8.9,68.3-9Z"/>
  <path d="M153.6,173.5c33.9-1.9,70.8,3.9,101.7,17.9,8.9,4.1,28,11.4,22.6,23.9-6.3,14.6-21.9,1.6-30.6-2.4-33.8-15.6-77.3-20.3-113.9-13.9-6.1,1.1-15.4,4.6-20.6,5-12.1.9-17.2-14.7-7-21.3,7.7-4.9,37.9-8.6,47.8-9.2Z"/>
  <path d="M154.3,221.5c29.5-1.8,59,1.9,85.9,14.1,7.6,3.4,27.1,11.3,18.1,22.4s-19.5-2.9-26.8-6.1c-29.5-13.1-61.3-14.6-93-10.3-5.3.7-21,4.9-24.7,4.2-9.2-1.8-10.7-15.1.8-18.4,11-3.2,28.2-5.3,39.7-6Z"/>
</svg>