<?xml version="1.0" encoding="UTF-8"?>
<svg id="Layer_1" xmlns="http://www.w3.org/2000/svg" width="408.8" height="409.1" version="1.1" viewBox="0 0 408.8 409.1">
  <!-- Generator: Adobe Illustrator 29.0.0, SVG Export Plug-In . SVG Version: 2.1.0 Build 186)  -->
  <path d="M408.8,53.8v301.8c-1.5,7.3-3.2,14.3-6.6,20.9-6.9,13.5-21,25.5-35.5,29.9-3.7,1.1-7.7,1.4-11.4,2.6h-103v-144.5h60.7l12-71.9h-72.7v-48.7h72.7v-71.9h-79.4c-29.8,0-65.1,35.3-65.1,65.1v55.5h-47.9v71.9h47.9v144.5H53.5c-28.5-3.9-51-26.6-53.5-55.5V55.8C2.3,29.3,21.9,7,47.9,1.4,152-.5,256.8-.5,360.9,1.4c24.3,4.8,45.5,27.5,47.9,52.3Z"/>
</svg>