<?xml version="1.0" encoding="UTF-8"?>
<svg id="Layer_1" xmlns="http://www.w3.org/2000/svg" width="512" height="512" version="1.1" viewBox="0 0 512 512">
  <!-- Generator: Adobe Illustrator 29.0.0, SVG Export Plug-In . SVG Version: 2.1.0 Build 186)  -->
  <path d="M388,0l24,4.5c46.1,12.4,83,49.4,95.5,95.5l4.5,24v264l-4.5,24c-12.5,46-49.4,83.1-95.5,95.5l-24,4.5H124l-24.8-4.7c-45.7-12.8-82.3-49.4-94.7-95.3l-4.5-24V124C5.4,59.7,59.2,4.9,124,0h264ZM171.8,90.3c-44.1,3.9-78.8,40.2-81.8,84.2,3,53.5-3.9,111,0,164,3.3,44.1,39.3,80.2,83.5,83.5,53.3,3.9,111.2-2.9,165,0,44.1-3.4,80.2-39.2,83.5-83.5,3.9-53.3-2.9-111.2,0-165-4.1-45.5-39.6-80.7-85.4-83.6-53.4,3.3-111.9-4.3-164.7.3Z"/>
  <path d="M172.8,120.3c53,3,112.4-4.9,164.7-.3,28.1,2.5,52,26.4,54.5,54.5,4.6,51.6-3.4,109.7,0,162-2.4,28.6-25.8,52.9-54.6,55.4-51.6,4.6-109.7-3.4-162,0-28.6-2.4-52.9-25.8-55.4-54.6-4.6-52.1,3.3-111,.1-163.9,3.5-27.8,24.9-49.6,52.7-53.3ZM338.7,155.2c-18.7,3.9-13.3,33.6,6.6,29.5s13.2-33.7-6.6-29.5ZM308.7,202.3c-73.3-72-180.8,45.6-99.7,112.2,72.3,59.3,167.3-45.8,99.7-112.2Z"/>
  <path d="M250.8,211.3c60.7-6.7,68.2,85.2,8.7,89.7-58.3,4.4-66.1-83.4-8.7-89.7Z"/>
</svg>