<?xml version="1.0" encoding="UTF-8"?>
<svg id="Layer_1" xmlns="http://www.w3.org/2000/svg" width="384" height="384" version="1.1" viewBox="0 0 384 384">
  <!-- Generator: Adobe Illustrator 29.0.0, SVG Export Plug-In . SVG Version: 2.1.0 Build 186)  -->
  <path d="M337.5,0c2.8,1,5.8,1.2,8.8,2.1,17,4.9,30.8,18.6,35.6,35.6s1.1,6,2.1,8.8v291c-1,2.8-1.2,5.8-2.1,8.8-4.9,16.8-18.7,30.8-35.6,35.6-3,.9-6,1.1-8.8,2.1H46.5c-2.8-1-5.8-1.2-8.8-2.1-17-4.9-30.8-18.6-35.6-35.6s-1.1-6-2.1-8.8V46.5C2.9,23.1,22.7,2.3,46.5,0h291ZM128.7,128c30.2-30.2-15.4-76.9-46.3-46.6-30.9,30.3,15.8,77.1,46.3,46.6ZM204.8,170.2v-12.4c0-2.9-3.3-6-6.4-6.4-7.2-.8-32.1-1-39,0s-4.5,2.3-5.2,4.6v151.2c1.1,2.9,3.6,4.4,6.6,4.7,7.9.9,27.2.8,35.3,0s7.4-1.9,7.9-7.1c2.4-26.6-6.3-78.9,6.9-100.4,9.8-15.9,34.8-16.8,43.8.2,10.3,19.5,2.6,75.4,4.8,100.2s2.7,6.6,7.1,7.1c8.2,1,28.4.8,36.8,0s7.3-2.9,7.9-7.1c-3.9-55.5,21.8-167.8-70.1-155.6-15.3,2-27.4,8.5-36.4,21ZM85.3,151.7c-3,1.3-4.7,3.7-5.1,6.9l.3,147.4c.9,3.3,3.5,5.4,6.9,5.9,5.7.8,32.1.9,37.3-.1s6.4-5.6,6.6-9.9l-.4-142.9c-.6-3.6-2.2-6.6-6.1-7.4h-39.5Z"/>
</svg>