<?xml version="1.0" encoding="utf-8"?>
<!-- Generator: Adobe Illustrator 25.2.1, SVG Export Plug-In . SVG Version: 6.00 Build 0)  -->
<svg version="1.1" id="Laag_1" xmlns="http://www.w3.org/2000/svg" xmlns:xlink="http://www.w3.org/1999/xlink" x="0px" y="0px"
	 width="110.2px" height="39px" viewBox="0 0 110.2 39" style="enable-background:new 0 0 110.2 39;" xml:space="preserve">
<style type="text/css">
	.st0{display:none;fill:#010203;}
	.st1{display:none;fill:#010203;stroke:#F0047F;stroke-width:0.25;stroke-miterlimit:10;}
	.st2{opacity:0.89;fill:url(#SVGID_1_);enable-background:new    ;}
	.st3{display:none;opacity:0.89;}
	.st4{display:inline;}
	.st5{fill:url(#SVGID_2_);}
</style>
<rect x="-16.7" y="-48.8" class="st0" width="143.7" height="143.7"/>
<circle class="st1" cx="55.1" cy="23" r="70.9"/>
<linearGradient id="SVGID_1_" gradientUnits="userSpaceOnUse" x1="37.7903" y1="54.546" x2="72.3618" y2="-5.3336">
	<stop  offset="0" style="stop-color:#806837"/>
	<stop  offset="0.1367" style="stop-color:#FFC94A"/>
	<stop  offset="0.2609" style="stop-color:#C19E40"/>
	<stop  offset="0.4907" style="stop-color:#E0B34A"/>
	<stop  offset="0.6177" style="stop-color:#CFB04E"/>
	<stop  offset="0.7632" style="stop-color:#806837"/>
	<stop  offset="1" style="stop-color:#806837"/>
</linearGradient>
<path class="st2" d="M110.2,24.8c0,1.3-0.3,2.5-0.4,3.1c-0.3,1.1-0.7,2.1-1.2,3.1c-0.6,1.2-1.4,2.3-2.4,3.3c-0.9,1-2,1.8-3.2,2.5
	s-2.5,1.2-3.8,1.5c-1.7,0.4-3.4,0.5-5.1,0.3c-1.8-0.3-3.4-0.8-5-1.7c-0.2-0.1-0.5-0.3-0.7-0.4c-0.1-0.1-0.2-0.1-0.3-0.2
	c-0.1-0.1-0.2-0.1-0.3-0.2c-2.1-1.5-3.7-3.5-4.8-5.9l2.7-1.2c0.1,0.3,0.3,0.6,0.4,0.9l0,0c0.9,1.8,2.3,3.2,4,4.2
	c0.1,0.1,0.2,0.1,0.3,0.2c0.3,0.2,0.6,0.3,0.9,0.5c1.4,0.7,3,1,4.6,1c5.6,0,10.3-4.2,11-9.6c0,0-16.6,0-22,0c-1.8,0-2.7-0.4-2.8-1.5
	c0-0.3,0-0.8,0.1-1.2c1-7.2,6.6-12.9,14-12.9c5.2,0,10,2.9,12.5,7.5l-2.6,1.4c-1.9-3.6-5.7-5.9-9.8-5.9c-1.5,0-3.1,0.4-4.5,1
	c-3.4,1.5-5.9,4.7-6.5,8.5c0,0.1,0,0.1,0,0.2c0,0,21.1-0.1,22.7,0C109.6,23.2,110.2,24.2,110.2,24.8z M54.6,23.2
	c0.7-5.4,5.4-9.7,11-9.7s10.3,4.2,11,9.7H54.6z M79.8,26.1L79.8,26.1v-1.5c0-7.8-6.3-14.1-14.1-14.1s-14.1,6.3-14.1,14.1
	s6.3,14.1,14.1,14.1c5.6,0,10.7-3.3,13-8.5L76,29c-1.8,4.1-5.8,6.7-10.2,6.7c-5.6,0-10.3-4.2-11-9.6H79.8L79.8,26.1z M32.2,0h3
	l-0.1,38.8h-3L32.2,0z M39.2,0h3l-0.1,38.8h-3L39.2,0z M46.1,0.2h3V39h-3V0.2z M14.1,35.8C8,35.8,3,30.8,3,24.6s5-11.1,11.1-11.1
	s11.1,5,11.1,11.1S20.3,35.8,14.1,35.8z M28.3,10.5L28.3,10.5h-3l0,0V16c-2.6-3.3-6.6-5.5-11.1-5.5C6.3,10.5,0,16.9,0,24.6
	s6.3,14.1,14.1,14.1c4.5,0,8.5-2.1,11.1-5.5v5.5l0,0h3l0,0v-14l0,0l0,0L28.3,10.5L28.3,10.5z"/>
<g class="st3">
	<g class="st4">
		
			<linearGradient id="SVGID_2_" gradientUnits="userSpaceOnUse" x1="-37.3943" y1="-43.5" x2="-32.5645" y2="-43.5" gradientTransform="matrix(1 0 0 -1 0 40)">
			<stop  offset="0" style="stop-color:#8F600C"/>
			<stop  offset="0.1367" style="stop-color:#CA9934"/>
			<stop  offset="0.2609" style="stop-color:#FBF178"/>
			<stop  offset="0.4907" style="stop-color:#E0B34A"/>
			<stop  offset="0.6177" style="stop-color:#FED55E"/>
			<stop  offset="0.7632" style="stop-color:#A37925"/>
			<stop  offset="1" style="stop-color:#F6D45B"/>
		</linearGradient>
		<path class="st5" d="M-35,86c3.2,0,3.2-5,0-5S-38.2,86-35,86L-35,86z"/>
	</g>
</g>
</svg>
